<svg width="29" height="34" viewBox="0 0 29 34" fill="none" xmlns="http://www.w3.org/2000/svg">
<mask id="mask0_726_1007" style="mask-type:luminance" maskUnits="userSpaceOnUse" x="6" y="6" width="23" height="25">
<path d="M6.05078 6.82227H28.2115V30.3805H6.05078V6.82227Z" fill="white"/>
</mask>
<g mask="url(#mask0_726_1007)">
<path d="M12.8897 12.7206C13.4517 12.9623 14.0455 13.0199 14.6063 12.9218C14.3314 12.8874 14.0578 12.815 13.7903 12.6997C12.2406 12.0334 11.5204 10.2285 12.1817 8.66902C12.6038 7.67516 13.4848 7.02117 14.4701 6.84939C13.1523 6.68129 11.8296 7.39909 11.2824 8.68988C10.6198 10.2494 11.34 12.0543 12.8897 12.7206ZM20.8664 14.9856H26.4627C26.6443 14.9856 26.7916 14.8383 26.7916 14.6568C26.7916 14.4752 26.6443 14.3279 26.4627 14.3279H20.8664C20.686 14.3279 20.5388 14.4752 20.5388 14.6568C20.5388 14.8383 20.686 14.9856 20.8664 14.9856ZM14.2431 9.46412L13.8774 8.32915L13.5106 9.46412H12.3253L13.2848 10.1647L12.9179 11.2997L13.8774 10.5991L14.8357 11.2997L14.4701 10.1647L15.4296 9.46412H14.2431ZM25.967 22.193V15.9328H26.4627C26.6443 15.9328 26.7916 15.7868 26.7916 15.6052C26.7916 15.4236 26.6443 15.2764 26.4627 15.2764H20.8664C20.686 15.2764 20.5388 15.4236 20.5388 15.6052C20.5388 15.7868 20.686 15.9328 20.8664 15.9328H21.3633V22.193H20.5155C20.0836 18.4678 13.8774 16.1218 13.8774 13.4801C13.8774 16.1218 7.67008 18.4678 7.23941 22.193H6.25781C9.40996 31.296 22.221 32.7034 28.1817 26.5709V23.5414L25.967 22.193ZM23.6652 8.68252C23.6652 10.258 21.3633 11.6506 21.3633 13.9316H25.967C25.967 11.6506 23.6652 10.258 23.6652 8.68252Z" fill="white"/>
</g>
<mask id="mask1_726_1007" style="mask-type:luminance" maskUnits="userSpaceOnUse" x="0" y="0" width="29" height="34">
<path d="M0.191406 0.463867H28.2123V33.6639H0.191406V0.463867Z" fill="white"/>
</mask>
<g mask="url(#mask1_726_1007)">
<path d="M19.5767 31.693C11.0883 31.693 4.20736 24.812 4.20736 16.3236C4.20736 7.8353 11.0883 0.954314 19.5767 0.954314C20.0368 0.954314 20.492 0.9764 20.9423 1.01566C19.6061 0.668424 18.2049 0.484375 16.7607 0.484375C7.60981 0.484375 0.191406 7.90278 0.191406 17.0537C0.191406 26.2058 7.60981 33.6243 16.7607 33.6243C21.1902 33.6243 25.2123 31.8868 28.1853 29.0574C25.7301 30.7212 22.7669 31.693 19.5767 31.693Z" fill="white"/>
</g>
</svg>
